<mxfile host="app.diagrams.net" modified="2023-09-21T18:57:34.228Z" agent="Mozilla/5.0 (Windows NT 10.0; Win64; x64) AppleWebKit/537.36 (KHTML, like Gecko) Chrome/117.0.0.0 Safari/537.36" etag="BpNd5_FWSJMVH_Q96cxC" version="21.2.8">
  <diagram name="Page-1" id="TKSFi8WrjOVRzI-ViUHX">
    <mxGraphModel dx="1687" dy="904" grid="0" gridSize="10" guides="1" tooltips="1" connect="1" arrows="1" fold="1" page="1" pageScale="1" pageWidth="900" pageHeight="1600" background="#FFF4C3" math="0" shadow="0">
      <root>
        <mxCell id="0" />
        <mxCell id="1" parent="0" />
        <mxCell id="ZbwSbqGi6mQ39VCojpHq-1" value="Dragon Taska&#39;" style="rounded=0;whiteSpace=wrap;html=1;fillColor=#f5f5f5;strokeColor=#666666;fontColor=#333333;" vertex="1" parent="1">
          <mxGeometry x="8" y="9" width="883" height="60" as="geometry" />
        </mxCell>
        <mxCell id="ZbwSbqGi6mQ39VCojpHq-2" value="" style="endArrow=none;html=1;rounded=0;" edge="1" parent="1">
          <mxGeometry width="50" height="50" relative="1" as="geometry">
            <mxPoint x="21" y="27.5" as="sourcePoint" />
            <mxPoint x="93" y="27.5" as="targetPoint" />
          </mxGeometry>
        </mxCell>
        <mxCell id="ZbwSbqGi6mQ39VCojpHq-3" value="" style="endArrow=none;html=1;rounded=0;" edge="1" parent="1">
          <mxGeometry width="50" height="50" relative="1" as="geometry">
            <mxPoint x="21" y="37.5" as="sourcePoint" />
            <mxPoint x="93" y="37.5" as="targetPoint" />
          </mxGeometry>
        </mxCell>
        <mxCell id="ZbwSbqGi6mQ39VCojpHq-4" value="" style="endArrow=none;html=1;rounded=0;" edge="1" parent="1">
          <mxGeometry width="50" height="50" relative="1" as="geometry">
            <mxPoint x="21" y="49.5" as="sourcePoint" />
            <mxPoint x="93" y="49.5" as="targetPoint" />
          </mxGeometry>
        </mxCell>
        <mxCell id="ZbwSbqGi6mQ39VCojpHq-50" value="" style="rounded=0;whiteSpace=wrap;html=1;fillColor=#f5f5f5;fontColor=#333333;strokeColor=#666666;" vertex="1" parent="1">
          <mxGeometry x="8" y="161" width="882" height="382" as="geometry" />
        </mxCell>
        <mxCell id="ZbwSbqGi6mQ39VCojpHq-51" value="Task Title" style="rounded=0;whiteSpace=wrap;html=1;align=left;fillColor=#dae8fc;strokeColor=#6c8ebf;" vertex="1" parent="1">
          <mxGeometry x="29.5" y="214" width="839" height="41" as="geometry" />
        </mxCell>
        <mxCell id="ZbwSbqGi6mQ39VCojpHq-52" value="Task Description" style="rounded=0;whiteSpace=wrap;html=1;align=left;fillColor=#dae8fc;strokeColor=#6c8ebf;" vertex="1" parent="1">
          <mxGeometry x="31" y="272" width="839" height="41" as="geometry" />
        </mxCell>
        <mxCell id="ZbwSbqGi6mQ39VCojpHq-53" value="Task Date" style="rounded=0;whiteSpace=wrap;html=1;align=left;fillColor=#dae8fc;strokeColor=#6c8ebf;" vertex="1" parent="1">
          <mxGeometry x="31" y="329" width="761.5" height="41" as="geometry" />
        </mxCell>
        <mxCell id="ZbwSbqGi6mQ39VCojpHq-54" value="Category" style="rounded=0;whiteSpace=wrap;html=1;align=left;fillColor=#dae8fc;strokeColor=#6c8ebf;" vertex="1" parent="1">
          <mxGeometry x="31" y="390" width="839" height="41" as="geometry" />
        </mxCell>
        <mxCell id="ZbwSbqGi6mQ39VCojpHq-55" value="Calendar Picker" style="rounded=0;whiteSpace=wrap;html=1;" vertex="1" parent="1">
          <mxGeometry x="802" y="329" width="69" height="41" as="geometry" />
        </mxCell>
        <mxCell id="ZbwSbqGi6mQ39VCojpHq-56" value="&lt;font style=&quot;font-size: 23px;&quot;&gt;Submit&lt;/font&gt;" style="rounded=0;whiteSpace=wrap;html=1;fillColor=#d5e8d4;strokeColor=#82b366;" vertex="1" parent="1">
          <mxGeometry x="750" y="465" width="120" height="60" as="geometry" />
        </mxCell>
        <mxCell id="ZbwSbqGi6mQ39VCojpHq-57" value="&lt;h2&gt;New Task&lt;/h2&gt;" style="rounded=0;whiteSpace=wrap;html=1;fillColor=#f5f5f5;fontColor=#333333;strokeColor=#666666;" vertex="1" parent="1">
          <mxGeometry x="9" y="85" width="882" height="60" as="geometry" />
        </mxCell>
        <mxCell id="ZbwSbqGi6mQ39VCojpHq-58" value="&lt;font style=&quot;font-size: 23px;&quot;&gt;Cancel&lt;/font&gt;" style="rounded=0;whiteSpace=wrap;html=1;fillColor=#f8cecc;strokeColor=#b85450;" vertex="1" parent="1">
          <mxGeometry x="618" y="465" width="120" height="60" as="geometry" />
        </mxCell>
      </root>
    </mxGraphModel>
  </diagram>
</mxfile>
